<?xml version="1.0" encoding="utf-8"?>
<!-- Generator: Adobe Illustrator 15.0.0, SVG Export Plug-In . SVG Version: 6.00 Build 0)  -->
<!DOCTYPE svg PUBLIC "-//W3C//DTD SVG 1.1//EN" "http://www.w3.org/Graphics/SVG/1.1/DTD/svg11.dtd">
<svg version="1.1" id="Layer_1" xmlns="http://www.w3.org/2000/svg" xmlns:xlink="http://www.w3.org/1999/xlink" x="0px" y="0px"
	 width="582.667px" height="228px" viewBox="0 0 582.667 228" enable-background="new 0 0 582.667 228" xml:space="preserve">
<polygon fill="#747577" points="7.667,47.632 20.854,55.065 43.533,52.123 30.346,44.69 "/>
<polygon fill="#646366" points="59.208,211.147 72.289,218.001 20.854,55.065 7.667,47.631 "/>
<g>
	<defs>
		<rect id="SVGID_1_" width="582.667" height="228"/>
	</defs>
	<clipPath id="SVGID_2_">
		<use xlink:href="#SVGID_1_"  overflow="visible"/>
	</clipPath>
	<path clip-path="url(#SVGID_2_)" fill="#747577" d="M216.5,123.961c25.81,0,42.971-7.031,54.564-16.291
		c23.874-19.065,22.813-42.148,22.813-48.065c0-42.437-35.688-42.875-45.75-42.875c-25.063,0-51.844,10.5-51.844,10.5l19.573,11.021
		L216.5,123.961z M249.688,100.668c-7.884,3.806-17.875,5.343-33.188,5.343V39.918c0,0,14.251-5.438,27.438-5.438
		s29.187,4.938,29.187,29.125C273.125,69.272,273.125,89.355,249.688,100.668"/>
	<polygon clip-path="url(#SVGID_2_)" fill="#646366" points="209.167,202.564 195.958,195.397 196.282,27.231 209.448,34.646 	"/>
	<path clip-path="url(#SVGID_2_)" fill="#000101" d="M307.042,67.189c0-42.437-35.688-42.875-45.75-42.875
		c-25.063,0-51.844,10.331-51.844,10.331l-0.282,167.92l20.5-2.771v-68.25c25.81,0,42.971-7.031,54.564-16.29
		C308.104,96.189,307.042,73.106,307.042,67.189 M262.854,108.252c-7.884,3.805-17.875,5.343-33.188,5.343V47.502
		c0,0,14.251-5.438,27.438-5.438s29.187,4.938,29.187,29.125C286.291,76.856,286.291,96.939,262.854,108.252"/>
	<polygon clip-path="url(#SVGID_2_)" fill="#DBAB27" points="174.25,208.231 153.07,210.814 153.07,39.564 174.25,36.981 	"/>
	<polygon clip-path="url(#SVGID_2_)" fill="#F3CE46" points="153.07,210.818 139.917,203.731 139.917,32.481 153.07,39.568 	"/>
	<polygon clip-path="url(#SVGID_2_)" fill="#EDC11C" points="174.25,36.981 153.07,39.564 139.917,32.481 161.096,29.898 	"/>
	<path clip-path="url(#SVGID_2_)" fill="#000101" d="M80.167,179.689c0,0,48.75-152.25,49.5-154.75s3.188-5.687,6.75-4.25
		c3.563,1.438,2.688,5.813,1.938,8.125c-0.75,2.313-53.021,167.417-53.021,167.417L80.167,179.689z"/>
	<path clip-path="url(#SVGID_2_)" fill="#454547" d="M145.313,45.747l0.265-6.584l-12.691-1.978c1.898-5.989,3.053-9.63,3.16-9.959
		c0.692-2.135,1.091-5.275-1.653-6.877c-0.603,0.044-1.157,0.221-1.661,0.496c2.907,1.573,2.499,4.79,1.795,6.963
		c-0.668,2.058-42.121,132.989-51.254,161.833l0.462,1.479l-1.336,4.223l15.121,4.046l1.06-6.504l-13.766-3.896
		c1.628-5.143,4.27-13.487,7.522-23.759l14.208,2.827l0.634-6.56l-12.793-2.736c2.308-7.289,4.844-15.302,7.495-23.672l14.307,2.718
		l0.577-6.565l-12.833-2.629c2.528-7.987,5.128-16.195,7.701-24.324l14.464,2.619l0.52-6.57l-12.93-2.533
		c2.596-8.198,5.137-16.222,7.521-23.751l14.498,2.046l0.265-6.584l-12.699-1.979c2.886-9.112,5.472-17.276,7.55-23.836
		L145.313,45.747z"/>
	<path clip-path="url(#SVGID_2_)" fill="#000101" d="M103.835,197.686c0,0,52.271-165.104,53.021-167.417
		c0.75-2.312,1.165-5.808-2.398-7.246c-3.562-1.437-5.962,2.045-6.543,4.208c-0.678,2.521-55.498,174.959-55.498,174.959
		c-0.292,0.958-0.417,2.083-2,2.125l3.791,10.167h1.875C96.458,214.481,98.875,214.897,103.835,197.686"/>
	<polygon clip-path="url(#SVGID_2_)" fill="#000101" points="145.417,44.408 129.67,42.186 129.917,37.774 145.417,40.189 	"/>
	<polygon clip-path="url(#SVGID_2_)" fill="#000101" points="135.81,74.762 120.063,72.539 120.31,68.128 135.81,70.543 	"/>
	<polygon clip-path="url(#SVGID_2_)" fill="#000101" points="126.252,105.575 110.603,102.742 111.022,98.344 126.416,101.359 	"/>
	<polygon clip-path="url(#SVGID_2_)" fill="#000101" points="116.354,136.475 100.73,133.507 101.188,129.112 116.555,132.261 	"/>
	<polygon clip-path="url(#SVGID_2_)" fill="#000101" points="106.724,166.727 91.126,163.624 91.621,159.232 106.961,162.515 	"/>
	<polygon clip-path="url(#SVGID_2_)" fill="#000101" points="97.786,198.072 82.423,193.962 83.202,189.612 98.296,193.886 	"/>
	<path clip-path="url(#SVGID_2_)" fill="#454547" d="M101.233,197.104c0,0,52.271-165.104,53.021-167.417
		c0.707-2.178,1.113-5.405-1.82-6.974c-0.589,0.059-1.129,0.251-1.617,0.536c3.034,1.55,2.632,4.82,1.918,7.021
		c-0.75,2.312-53.021,167.416-53.021,167.416c-3.109,10.787-5.073,13.737-6.385,14.437l0.269,0.722
		C94.804,212.904,96.872,212.239,101.233,197.104"/>
	<polygon clip-path="url(#SVGID_2_)" fill="#000101" points="94.917,215.064 72.289,218.002 20.854,55.064 43.533,52.123 	"/>
	<path clip-path="url(#SVGID_2_)" fill="#000101" d="M346.743,72.194l-15.21-39.256h5.623l10.201,28.518
		c0.822,2.285,1.51,4.427,2.063,6.427c0.605-2.143,1.311-4.285,2.115-6.427l10.603-28.518h5.303L352.07,72.194H346.743z"/>
	<path clip-path="url(#SVGID_2_)" fill="#000101" d="M391.226,63.036l4.982,0.616c-0.786,2.91-2.242,5.168-4.366,6.775
		s-4.837,2.41-8.14,2.41c-4.159,0-7.457-1.281-9.896-3.843c-2.436-2.561-3.653-6.154-3.653-10.778c0-4.784,1.23-8.497,3.694-11.139
		c2.463-2.642,5.658-3.963,9.586-3.963c3.804,0,6.909,1.294,9.319,3.882c2.41,2.589,3.615,6.231,3.615,10.926
		c0,0.285-0.009,0.714-0.027,1.285h-21.208c0.178,3.124,1.063,5.516,2.651,7.177c1.589,1.66,3.569,2.49,5.944,2.49
		c1.768,0,3.276-0.464,4.526-1.393C389.505,66.553,390.495,65.071,391.226,63.036 M375.401,55.244h15.879
		c-0.214-2.392-0.821-4.187-1.82-5.382c-1.537-1.857-3.527-2.785-5.972-2.785c-2.214,0-4.075,0.741-5.583,2.222
		C376.396,50.781,375.561,52.763,375.401,55.244"/>
	<path clip-path="url(#SVGID_2_)" fill="#000101" d="M402.206,72.194V43.756h4.338v4.311c1.105-2.017,2.129-3.347,3.065-3.99
		c0.938-0.642,1.969-0.964,3.094-0.964c1.623,0,3.274,0.518,4.953,1.553l-1.66,4.472c-1.179-0.696-2.356-1.044-3.534-1.044
		c-1.055,0-2,0.317-2.839,0.951c-0.84,0.633-1.438,1.512-1.794,2.637c-0.535,1.714-0.804,3.588-0.804,5.623v14.889H402.206z"/>
	<path clip-path="url(#SVGID_2_)" fill="#000101" d="M431.046,67.883l0.695,4.257c-1.355,0.286-2.569,0.429-3.641,0.429
		c-1.75,0-3.107-0.277-4.071-0.83c-0.963-0.553-1.642-1.281-2.035-2.183c-0.392-0.901-0.589-2.798-0.589-5.69V47.505h-3.535v-3.749
		h3.535v-7.042l4.793-2.893v9.935h4.848v3.749h-4.848v16.629c0,1.375,0.084,2.258,0.254,2.651c0.171,0.393,0.447,0.705,0.83,0.937
		c0.385,0.232,0.934,0.348,1.648,0.348C429.466,68.07,430.171,68.008,431.046,67.883"/>
	<path clip-path="url(#SVGID_2_)" fill="#000101" d="M435.785,32.938h4.82v5.543h-4.82V32.938z M435.785,43.756h4.82v28.438h-4.82
		V43.756z"/>
	<path clip-path="url(#SVGID_2_)" fill="#000101" d="M466.499,61.778l4.739,0.616c-0.518,3.267-1.844,5.824-3.976,7.672
		c-2.134,1.847-4.753,2.771-7.86,2.771c-3.892,0-7.02-1.272-9.385-3.816c-2.367-2.544-3.548-6.19-3.548-10.938
		c0-3.071,0.508-5.758,1.526-8.06c1.018-2.304,2.564-4.031,4.646-5.182c2.079-1.151,4.341-1.727,6.788-1.727
		c3.089,0,5.614,0.781,7.578,2.343s3.221,3.78,3.774,6.654l-4.685,0.723c-0.447-1.91-1.237-3.347-2.37-4.311
		c-1.134-0.964-2.504-1.446-4.111-1.446c-2.429,0-4.399,0.87-5.918,2.611c-1.517,1.74-2.275,4.494-2.275,8.261
		c0,3.82,0.731,6.596,2.196,8.328c1.464,1.731,3.373,2.597,5.73,2.597c1.891,0,3.471-0.58,4.739-1.741
		C465.355,65.973,466.16,64.188,466.499,61.778"/>
	<path clip-path="url(#SVGID_2_)" fill="#000101" d="M495.016,68.687c-1.785,1.517-3.505,2.588-5.153,3.213
		c-1.651,0.625-3.425,0.937-5.315,0.937c-3.124,0-5.526-0.763-7.203-2.29c-1.679-1.526-2.518-3.476-2.518-5.85
		c0-1.393,0.315-2.665,0.951-3.816c0.633-1.151,1.463-2.076,2.489-2.772c1.027-0.696,2.183-1.222,3.469-1.58
		c0.944-0.25,2.374-0.49,4.283-0.723c3.893-0.464,6.757-1.017,8.597-1.66c0.018-0.66,0.025-1.079,0.025-1.258
		c0-1.964-0.455-3.347-1.365-4.151c-1.23-1.088-3.062-1.633-5.488-1.633c-2.269,0-3.943,0.397-5.022,1.191
		c-1.08,0.795-1.879,2.201-2.396,4.218l-4.713-0.643c0.429-2.017,1.134-3.646,2.114-4.887c0.983-1.24,2.402-2.196,4.259-2.865
		c1.856-0.67,4.008-1.004,6.453-1.004c2.428,0,4.401,0.286,5.918,0.857c1.518,0.571,2.634,1.289,3.348,2.155
		c0.714,0.866,1.214,1.96,1.5,3.28c0.16,0.822,0.24,2.304,0.24,4.446v6.426c0,4.481,0.103,7.315,0.309,8.502
		c0.205,1.188,0.611,2.326,1.217,3.414h-5.034C495.479,71.195,495.159,70.026,495.016,68.687 M494.615,57.922
		c-1.75,0.714-4.374,1.321-7.873,1.821c-1.981,0.285-3.383,0.607-4.204,0.964s-1.455,0.879-1.902,1.566
		c-0.446,0.688-0.668,1.451-0.668,2.29c0,1.285,0.486,2.356,1.459,3.213c0.972,0.857,2.396,1.286,4.271,1.286
		c1.854,0,3.508-0.407,4.954-1.219c1.444-0.812,2.508-1.923,3.187-3.334c0.517-1.088,0.776-2.695,0.776-4.82V57.922z"/>
	<rect x="506.852" y="32.938" clip-path="url(#SVGID_2_)" fill="#000101" width="4.82" height="39.256"/>
	<rect x="519.036" y="32.938" clip-path="url(#SVGID_2_)" fill="#000101" width="4.82" height="39.256"/>
	<path clip-path="url(#SVGID_2_)" fill="#000101" d="M531.113,83.146l-0.535-4.525c1.053,0.285,1.972,0.428,2.758,0.428
		c1.071,0,1.928-0.179,2.571-0.536c0.643-0.357,1.169-0.856,1.579-1.499c0.304-0.482,0.795-1.679,1.474-3.588
		c0.089-0.268,0.231-0.661,0.427-1.178l-10.791-28.492h5.195l5.918,16.468c0.767,2.089,1.455,4.285,2.062,6.588
		c0.554-2.214,1.215-4.374,1.982-6.481l6.078-16.575h4.82l-10.818,28.92c-1.16,3.124-2.063,5.275-2.704,6.453
		c-0.858,1.589-1.839,2.754-2.947,3.495c-1.105,0.74-2.427,1.111-3.963,1.111C533.291,83.735,532.256,83.54,531.113,83.146"/>
	<rect x="336.406" y="92.938" clip-path="url(#SVGID_2_)" fill="#000101" width="5.193" height="39.256"/>
	<path clip-path="url(#SVGID_2_)" fill="#000101" d="M350.144,132.194v-28.438h4.338v4.043c2.089-3.124,5.104-4.686,9.051-4.686
		c1.715,0,3.289,0.308,4.726,0.924c1.438,0.616,2.514,1.424,3.228,2.424s1.214,2.187,1.499,3.561
		c0.179,0.893,0.268,2.455,0.268,4.686v17.486h-4.819v-17.298c0-1.964-0.188-3.432-0.563-4.406c-0.375-0.972-1.04-1.749-1.996-2.329
		c-0.955-0.58-2.075-0.87-3.36-0.87c-2.053,0-3.824,0.652-5.314,1.954c-1.491,1.303-2.237,3.776-2.237,7.418v15.531H350.144z"/>
	<path clip-path="url(#SVGID_2_)" fill="#000101" d="M391.167,127.883l0.695,4.258c-1.355,0.286-2.569,0.429-3.641,0.429
		c-1.75,0-3.107-0.277-4.071-0.83c-0.963-0.553-1.642-1.281-2.035-2.183c-0.392-0.901-0.589-2.799-0.589-5.69v-16.36h-3.535v-3.749
		h3.535v-7.042l4.793-2.894v9.936h4.848v3.749h-4.848v16.629c0,1.375,0.084,2.258,0.254,2.65c0.171,0.394,0.447,0.705,0.83,0.938
		c0.385,0.231,0.934,0.347,1.648,0.347C389.587,128.069,390.292,128.008,391.167,127.883"/>
	<path clip-path="url(#SVGID_2_)" fill="#000101" d="M415.346,123.036l4.982,0.616c-0.786,2.91-2.242,5.168-4.366,6.774
		c-2.124,1.607-4.837,2.41-8.14,2.41c-4.159,0-7.457-1.281-9.896-3.843c-2.436-2.561-3.653-6.154-3.653-10.778
		c0-4.784,1.23-8.497,3.694-11.139c2.463-2.642,5.657-3.963,9.586-3.963c3.804,0,6.909,1.294,9.319,3.882
		c2.41,2.589,3.615,6.231,3.615,10.926c0,0.285-0.009,0.714-0.027,1.285h-21.208c0.178,3.124,1.063,5.516,2.651,7.177
		c1.589,1.66,3.569,2.49,5.944,2.49c1.768,0,3.276-0.464,4.526-1.393C413.624,126.553,414.615,125.071,415.346,123.036
		 M399.521,115.244H415.4c-0.214-2.392-0.821-4.187-1.82-5.382c-1.537-1.857-3.527-2.785-5.972-2.785
		c-2.214,0-4.075,0.741-5.583,2.222C400.516,110.781,399.681,112.763,399.521,115.244"/>
	<path clip-path="url(#SVGID_2_)" fill="#000101" d="M425.496,134.551l4.685,0.696c0.197,1.446,0.742,2.499,1.635,3.159
		c1.195,0.893,2.828,1.339,4.899,1.339c2.232,0,3.955-0.446,5.167-1.339c1.215-0.892,2.037-2.142,2.465-3.749
		c0.25-0.981,0.366-3.043,0.349-6.185c-2.106,2.48-4.73,3.722-7.872,3.722c-3.91,0-6.937-1.41-9.078-4.231
		c-2.143-2.819-3.213-6.202-3.213-10.148c0-2.713,0.489-5.217,1.473-7.511c0.981-2.294,2.405-4.066,4.271-5.315
		c1.864-1.25,4.058-1.875,6.573-1.875c3.357,0,6.123,1.357,8.303,4.07v-3.427h4.443v24.582c0,4.428-0.451,7.565-1.351,9.413
		c-0.904,1.848-2.33,3.307-4.285,4.378c-1.954,1.071-4.361,1.606-7.216,1.606c-3.394,0-6.133-0.763-8.223-2.289
		C426.433,139.92,425.424,137.621,425.496,134.551 M429.486,117.466c0,3.731,0.739,6.454,2.222,8.167
		c1.482,1.715,3.339,2.571,5.57,2.571c2.213,0,4.069-0.852,5.568-2.557c1.5-1.705,2.25-4.378,2.25-8.021
		c0-3.48-0.771-6.104-2.315-7.873c-1.545-1.767-3.405-2.651-5.583-2.651c-2.144,0-3.964,0.87-5.463,2.611
		C430.235,111.455,429.486,114.039,429.486,117.466"/>
	<path clip-path="url(#SVGID_2_)" fill="#000101" d="M456.826,132.194v-28.438h4.338v4.311c1.105-2.017,2.129-3.347,3.065-3.99
		c0.938-0.642,1.969-0.964,3.094-0.964c1.624,0,3.274,0.518,4.953,1.553l-1.66,4.472c-1.179-0.696-2.356-1.044-3.534-1.044
		c-1.055,0-2,0.317-2.839,0.951c-0.84,0.633-1.438,1.512-1.794,2.637c-0.535,1.714-0.804,3.588-0.804,5.624v14.889H456.826z"/>
	<path clip-path="url(#SVGID_2_)" fill="#000101" d="M493.698,128.687c-1.785,1.518-3.504,2.59-5.153,3.215
		c-1.651,0.625-3.425,0.936-5.315,0.936c-3.124,0-5.526-0.763-7.203-2.29c-1.679-1.526-2.518-3.476-2.518-5.85
		c0-1.394,0.315-2.665,0.95-3.816c0.634-1.151,1.464-2.076,2.49-2.771c1.027-0.696,2.183-1.223,3.469-1.58
		c0.944-0.25,2.373-0.49,4.283-0.724c3.893-0.464,6.757-1.017,8.597-1.66c0.018-0.66,0.025-1.079,0.025-1.258
		c0-1.964-0.455-3.347-1.365-4.151c-1.23-1.088-3.062-1.633-5.488-1.633c-2.269,0-3.942,0.397-5.022,1.191
		c-1.08,0.795-1.879,2.201-2.396,4.218l-4.713-0.643c0.429-2.017,1.134-3.646,2.114-4.887c0.983-1.24,2.402-2.196,4.259-2.865
		c1.856-0.67,4.008-1.004,6.453-1.004c2.428,0,4.401,0.286,5.918,0.857c1.518,0.571,2.634,1.289,3.348,2.155
		c0.714,0.866,1.214,1.96,1.5,3.28c0.16,0.822,0.24,2.304,0.24,4.446v6.426c0,4.48,0.103,7.314,0.309,8.502
		c0.205,1.188,0.611,2.325,1.217,3.414h-5.034C494.162,131.195,493.842,130.026,493.698,128.687 M493.298,117.922
		c-1.75,0.714-4.374,1.321-7.873,1.821c-1.981,0.285-3.384,0.606-4.204,0.964c-0.821,0.356-1.455,0.879-1.902,1.565
		c-0.446,0.688-0.667,1.451-0.667,2.29c0,1.285,0.485,2.356,1.458,3.214c0.972,0.856,2.396,1.285,4.271,1.285
		c1.855,0,3.508-0.406,4.953-1.219c1.445-0.812,2.509-1.923,3.188-3.334c0.517-1.088,0.776-2.695,0.776-4.82V117.922z"/>
	<path clip-path="url(#SVGID_2_)" fill="#000101" d="M516.166,127.883l0.695,4.258c-1.355,0.286-2.569,0.429-3.641,0.429
		c-1.75,0-3.107-0.277-4.071-0.83s-1.642-1.281-2.035-2.183c-0.392-0.901-0.589-2.799-0.589-5.69v-16.36h-3.535v-3.749h3.535v-7.042
		l4.793-2.894v9.936h4.848v3.749h-4.848v16.629c0,1.375,0.084,2.258,0.254,2.65c0.171,0.394,0.447,0.705,0.83,0.938
		c0.385,0.231,0.934,0.347,1.648,0.347C514.586,128.069,515.291,128.008,516.166,127.883"/>
	<path clip-path="url(#SVGID_2_)" fill="#000101" d="M540.345,123.036l4.982,0.616c-0.786,2.91-2.243,5.168-4.366,6.774
		c-2.124,1.607-4.837,2.41-8.14,2.41c-4.159,0-7.457-1.281-9.896-3.843c-2.436-2.561-3.653-6.154-3.653-10.778
		c0-4.784,1.23-8.497,3.694-11.139c2.463-2.642,5.658-3.963,9.586-3.963c3.804,0,6.909,1.294,9.319,3.882
		c2.41,2.589,3.615,6.231,3.615,10.926c0,0.285-0.009,0.714-0.028,1.285h-21.207c0.178,3.124,1.063,5.516,2.651,7.177
		c1.589,1.66,3.569,2.49,5.944,2.49c1.768,0,3.276-0.464,4.526-1.393C538.623,126.553,539.614,125.071,540.345,123.036
		 M524.521,115.244h15.879c-0.214-2.392-0.821-4.187-1.82-5.382c-1.538-1.857-3.527-2.785-5.972-2.785
		c-2.214,0-4.075,0.741-5.583,2.222C525.516,110.781,524.68,112.763,524.521,115.244"/>
	<path clip-path="url(#SVGID_2_)" fill="#000101" d="M569.827,132.194v-3.588c-1.802,2.82-4.454,4.23-7.952,4.23
		c-2.267,0-4.351-0.625-6.253-1.875c-1.9-1.249-3.374-2.994-4.418-5.234c-1.045-2.24-1.566-4.815-1.566-7.726
		c0-2.838,0.474-5.413,1.42-7.725c0.944-2.312,2.365-4.084,4.258-5.316c1.891-1.231,4.005-1.847,6.345-1.847
		c1.714,0,3.241,0.361,4.578,1.084c1.34,0.723,2.43,1.665,3.269,2.825V92.938h4.794v39.256H569.827z M554.592,118.002
		c0,3.642,0.768,6.364,2.303,8.167c1.535,1.804,3.347,2.705,5.436,2.705c2.107,0,3.896-0.861,5.369-2.584
		c1.474-1.723,2.209-4.35,2.209-7.886c0-3.893-0.75-6.748-2.25-8.569c-1.499-1.821-3.346-2.731-5.543-2.731
		c-2.141,0-3.931,0.875-5.368,2.624C555.311,111.478,554.592,114.236,554.592,118.002"/>
	<path clip-path="url(#SVGID_2_)" fill="#000101" d="M335.522,194.861v-39.257h14.808c2.607,0,4.598,0.125,5.973,0.375
		c1.928,0.322,3.543,0.936,4.847,1.834c1.302,0.902,2.351,2.165,3.146,3.789c0.795,1.625,1.192,3.411,1.192,5.356
		c0,3.339-1.063,6.164-3.187,8.475c-2.125,2.314-5.963,3.468-11.516,3.468h-10.067v15.96H335.522z M340.718,174.269h10.147
		c3.357,0,5.74-0.624,7.151-1.874c1.41-1.249,2.115-3.008,2.115-5.275c0-1.643-0.415-3.048-1.245-4.218
		c-0.83-1.169-1.924-1.94-3.28-2.315c-0.875-0.232-2.491-0.349-4.847-0.349h-10.042V174.269z"/>
	<path clip-path="url(#SVGID_2_)" fill="#000101" d="M371.432,194.861v-28.438h4.338v4.311c1.105-2.017,2.129-3.347,3.065-3.99
		c0.938-0.642,1.969-0.964,3.094-0.964c1.624,0,3.273,0.519,4.953,1.553l-1.66,4.473c-1.179-0.696-2.356-1.044-3.534-1.044
		c-1.055,0-2,0.316-2.839,0.951c-0.839,0.633-1.438,1.512-1.794,2.637c-0.535,1.714-0.804,3.588-0.804,5.623v14.889H371.432z"/>
	<path clip-path="url(#SVGID_2_)" fill="#000101" d="M387.954,180.642c0-5.266,1.463-9.166,4.391-11.701
		c2.446-2.106,5.426-3.16,8.944-3.16c3.909,0,7.104,1.281,9.587,3.843c2.479,2.562,3.72,6.102,3.72,10.617
		c0,3.66-0.547,6.538-1.645,8.636c-1.1,2.098-2.696,3.727-4.794,4.888c-2.099,1.16-4.388,1.74-6.868,1.74
		c-3.982,0-7.199-1.276-9.653-3.829C389.18,189.122,387.954,185.444,387.954,180.642 M392.907,180.642
		c0,3.643,0.795,6.369,2.384,8.181c1.589,1.813,3.588,2.719,5.998,2.719c2.391,0,4.383-0.911,5.972-2.731
		c1.588-1.821,2.382-4.597,2.382-8.328c0-3.517-0.798-6.181-2.396-7.993c-1.599-1.812-3.584-2.718-5.958-2.718
		c-2.41,0-4.409,0.902-5.998,2.704C393.702,174.278,392.907,177,392.907,180.642"/>
	<path clip-path="url(#SVGID_2_)" fill="#000101" d="M414.115,205.894l0.911-4.097c0.964,0.249,1.723,0.375,2.275,0.375
		c0.982,0,1.713-0.326,2.196-0.978c0.48-0.652,0.722-2.281,0.722-4.888v-29.884h4.821v29.991c0,3.499-0.455,5.936-1.366,7.311
		c-1.161,1.785-3.088,2.678-5.784,2.678C416.589,206.402,415.33,206.232,414.115,205.894 M420.22,155.605h4.82v5.597h-4.82V155.605z
		"/>
	<path clip-path="url(#SVGID_2_)" fill="#000101" d="M451.897,185.703l4.982,0.616c-0.786,2.909-2.243,5.168-4.366,6.774
		c-2.124,1.606-4.837,2.41-8.14,2.41c-4.159,0-7.457-1.281-9.896-3.843c-2.436-2.563-3.653-6.154-3.653-10.778
		c0-4.784,1.229-8.497,3.694-11.139c2.463-2.642,5.657-3.963,9.586-3.963c3.804,0,6.909,1.294,9.319,3.882
		c2.41,2.589,3.615,6.23,3.615,10.926c0,0.285-0.009,0.714-0.028,1.285h-21.207c0.178,3.124,1.063,5.516,2.651,7.177
		c1.589,1.66,3.569,2.49,5.944,2.49c1.768,0,3.276-0.465,4.526-1.393C450.176,189.22,451.167,187.738,451.897,185.703
		 M436.073,177.911h15.879c-0.214-2.393-0.821-4.188-1.82-5.383c-1.538-1.856-3.527-2.784-5.972-2.784
		c-2.214,0-4.075,0.741-5.583,2.222C437.068,173.448,436.232,175.431,436.073,177.911"/>
	<path clip-path="url(#SVGID_2_)" fill="#000101" d="M481.488,184.444l4.739,0.616c-0.518,3.267-1.844,5.824-3.976,7.672
		c-2.134,1.848-4.753,2.772-7.86,2.772c-3.892,0-7.02-1.273-9.385-3.817c-2.367-2.544-3.548-6.189-3.548-10.938
		c0-3.07,0.508-5.757,1.526-8.06c1.018-2.303,2.564-4.03,4.646-5.183c2.079-1.15,4.341-1.727,6.788-1.727
		c3.089,0,5.614,0.781,7.578,2.343c1.964,1.563,3.222,3.78,3.774,6.654l-4.685,0.724c-0.447-1.911-1.237-3.348-2.37-4.311
		c-1.134-0.965-2.504-1.447-4.111-1.447c-2.428,0-4.399,0.87-5.918,2.611c-1.517,1.74-2.275,4.494-2.275,8.261
		c0,3.82,0.731,6.598,2.195,8.328c1.465,1.73,3.374,2.598,5.731,2.598c1.891,0,3.471-0.58,4.739-1.742
		C480.345,188.64,481.148,186.854,481.488,184.444"/>
	<path clip-path="url(#SVGID_2_)" fill="#000101" d="M500.876,190.55l0.695,4.258c-1.355,0.285-2.569,0.429-3.641,0.429
		c-1.75,0-3.107-0.277-4.071-0.83c-0.963-0.554-1.642-1.281-2.035-2.183c-0.392-0.901-0.589-2.799-0.589-5.69v-16.36H487.7v-3.749
		h3.535v-7.043l4.793-2.892v9.935h4.848v3.749h-4.848v16.628c0,1.375,0.084,2.259,0.254,2.651s0.447,0.705,0.83,0.938
		c0.384,0.231,0.934,0.347,1.648,0.347C499.296,190.736,500.001,190.675,500.876,190.55"/>
	<path clip-path="url(#SVGID_2_)" fill="#000101" d="M503.66,186.372l4.767-0.749c0.268,1.91,1.013,3.374,2.236,4.392
		c1.223,1.018,2.932,1.526,5.128,1.526c2.213,0,3.855-0.451,4.927-1.353s1.607-1.959,1.607-3.173c0-1.089-0.475-1.946-1.421-2.571
		c-0.659-0.429-2.303-0.973-4.927-1.633c-3.535-0.893-5.984-1.665-7.35-2.316s-2.402-1.554-3.107-2.705s-1.057-2.423-1.057-3.813
		c0-1.27,0.29-2.442,0.87-3.523c0.58-1.08,1.37-1.977,2.37-2.691c0.75-0.553,1.771-1.021,3.065-1.405
		c1.294-0.384,2.683-0.575,4.164-0.575c2.231,0,4.191,0.321,5.877,0.964c1.688,0.642,2.934,1.512,3.736,2.61
		c0.803,1.098,1.356,2.566,1.661,4.404l-4.713,0.643c-0.216-1.463-0.835-2.605-1.861-3.426c-1.028-0.821-2.478-1.232-4.353-1.232
		c-2.214,0-3.794,0.366-4.738,1.098c-0.947,0.732-1.42,1.589-1.42,2.57c0,0.625,0.195,1.189,0.59,1.687
		c0.391,0.519,1.008,0.947,1.847,1.286c0.482,0.179,1.901,0.589,4.257,1.231c3.41,0.91,5.789,1.656,7.138,2.236
		c1.348,0.58,2.404,1.424,3.173,2.53c0.767,1.106,1.15,2.481,1.15,4.124c0,1.606-0.468,3.119-1.404,4.538
		c-0.938,1.42-2.29,2.518-4.058,3.294c-1.767,0.776-3.767,1.165-5.999,1.165c-3.694,0-6.511-0.768-8.447-2.303
		C505.432,191.666,504.195,189.39,503.66,186.372"/>
</g>
</svg>
